<?xml version="1.0" encoding="UTF-8"?>
<svg width="508mm" height="285.75mm" version="1.1" viewBox="0 0 508 285.75" xmlns="http://www.w3.org/2000/svg" xmlns:xlink="http://www.w3.org/1999/xlink">
<defs>
<filter id="filter863" x="-.63275" y="-.63275" width="2.2655" height="2.2655" color-interpolation-filters="sRGB">
<feGaussianBlur stdDeviation="14.730283"/>
</filter>
<filter id="filter863-3" x="-.63275" y="-.63275" width="2.2655" height="2.2655" color-interpolation-filters="sRGB">
<feGaussianBlur stdDeviation="14.730283"/>
</filter>
<filter id="filter863-3-5" x="-.63275" y="-.63275" width="2.2655" height="2.2655" color-interpolation-filters="sRGB">
<feGaussianBlur stdDeviation="14.730283"/>
</filter>
<filter id="filter863-3-5-6-1-0" x="-.63275" y="-.63275" width="2.2655" height="2.2655" color-interpolation-filters="sRGB">
<feGaussianBlur stdDeviation="14.730283"/>
</filter>
<filter id="filter1018" x="-.31954" y="-.31954" width="1.6391" height="1.6391" color-interpolation-filters="sRGB">
<feGaussianBlur stdDeviation="7.4389068"/>
</filter>
<filter id="filter1026" x="-.31609" y="-.31609" width="1.6322" height="1.6322" color-interpolation-filters="sRGB">
<feGaussianBlur stdDeviation="7.3585651"/>
</filter>
<filter id="filter1038" x="-.37815" y="-.37815" width="1.7563" height="1.7563" color-interpolation-filters="sRGB">
<feGaussianBlur stdDeviation="8.8032286"/>
</filter>
<filter id="filter1166" x="-.58506" y="-.58506" width="2.1701" height="2.1701" color-interpolation-filters="sRGB">
<feGaussianBlur stdDeviation="13.620011"/>
</filter>
<filter id="filter1038-8" x="-.37815" y="-.37815" width="1.7563" height="1.7563" color-interpolation-filters="sRGB">
<feGaussianBlur stdDeviation="8.8032286"/>
</filter>
<filter id="filter1038-8-2" x="-.37815" y="-.37815" width="1.7563" height="1.7563" color-interpolation-filters="sRGB">
<feGaussianBlur stdDeviation="8.8032286"/>
</filter>
<filter id="filter1038-8-2-3" x="-.37815" y="-.37815" width="1.7563" height="1.7563" color-interpolation-filters="sRGB">
<feGaussianBlur stdDeviation="8.8032286"/>
</filter>
<filter id="filter1038-8-2-3-9" x="-.37815" y="-.37815" width="1.7563" height="1.7563" color-interpolation-filters="sRGB">
<feGaussianBlur stdDeviation="8.8032286"/>
</filter>
<filter id="filter1038-8-2-3-8" x="-.37815" y="-.37815" width="1.7563" height="1.7563" color-interpolation-filters="sRGB">
<feGaussianBlur stdDeviation="8.8032286"/>
</filter>
<filter id="filter1038-8-2-3-3" x="-.37815" y="-.37815" width="1.7563" height="1.7563" color-interpolation-filters="sRGB">
<feGaussianBlur stdDeviation="8.8032286"/>
</filter>
<filter id="filter1038-8-2-3-2" x="-.37815" y="-.37815" width="1.7563" height="1.7563" color-interpolation-filters="sRGB">
<feGaussianBlur stdDeviation="8.8032286"/>
</filter>
<filter id="filter1038-8-2-3-4" x="-.37815" y="-.37815" width="1.7563" height="1.7563" color-interpolation-filters="sRGB">
<feGaussianBlur stdDeviation="8.8032286"/>
</filter>
<filter id="filter1038-8-2-3-45" x="-.37815" y="-.37815" width="1.7563" height="1.7563" color-interpolation-filters="sRGB">
<feGaussianBlur stdDeviation="8.8032286"/>
</filter>
<filter id="filter1038-8-2-3-6" x="-.37815" y="-.37815" width="1.7563" height="1.7563" color-interpolation-filters="sRGB">
<feGaussianBlur stdDeviation="8.8032286"/>
</filter>
<filter id="filter1038-8-2-3-6-6" x="-.37815" y="-.37815" width="1.7563" height="1.7563" color-interpolation-filters="sRGB">
<feGaussianBlur stdDeviation="8.8032286"/>
</filter>
<filter id="filter1038-8-2-3-6-6-0" x="-.37815" y="-.37815" width="1.7563" height="1.7563" color-interpolation-filters="sRGB">
<feGaussianBlur stdDeviation="8.8032286"/>
</filter>
<filter id="filter1018-5" x="-.31954" y="-.31954" width="1.6391" height="1.6391" color-interpolation-filters="sRGB">
<feGaussianBlur stdDeviation="7.4389068"/>
</filter>
<filter id="filter1018-5-7" x="-.31954" y="-.31954" width="1.6391" height="1.6391" color-interpolation-filters="sRGB">
<feGaussianBlur stdDeviation="7.4389068"/>
</filter>
<filter id="filter1419" x="-.59271" y="-.59271" width="2.1854" height="2.1854" color-interpolation-filters="sRGB">
<feGaussianBlur stdDeviation="13.798124"/>
</filter>
<filter id="filter1419-7" x="-.59271" y="-.59271" width="2.1854" height="2.1854" color-interpolation-filters="sRGB">
<feGaussianBlur stdDeviation="13.798124"/>
</filter>
<filter id="filter1469" x="-.3596" y="-.3596" width="1.7192" height="1.7192" color-interpolation-filters="sRGB">
<feGaussianBlur stdDeviation="8.3713442"/>
</filter>
<filter id="filter1038-8-2-3-45-7" x="-.37815" y="-.37815" width="1.7563" height="1.7563" color-interpolation-filters="sRGB">
<feGaussianBlur stdDeviation="8.8032286"/>
</filter>
<filter id="filter1038-8-2-30" x="-.37815" y="-.37815" width="1.7563" height="1.7563" color-interpolation-filters="sRGB">
<feGaussianBlur stdDeviation="8.8032286"/>
</filter>
<filter id="filter1038-8-2-3-6-6-0-8" x="-.37815" y="-.37815" width="1.7563" height="1.7563" color-interpolation-filters="sRGB">
<feGaussianBlur stdDeviation="8.8032286"/>
</filter>
<filter id="filter863-3-3" x="-.63275" y="-.63275" width="2.2655" height="2.2655" color-interpolation-filters="sRGB">
<feGaussianBlur stdDeviation="14.730283"/>
</filter>
<filter id="filter863-9" x="-.63275" y="-.63275" width="2.2655" height="2.2655" color-interpolation-filters="sRGB">
<feGaussianBlur stdDeviation="14.730283"/>
</filter>
<filter id="filter863-3-5-6" x="-.63275" y="-.63275" width="2.2655" height="2.2655" color-interpolation-filters="sRGB">
<feGaussianBlur stdDeviation="14.730283"/>
</filter>
<filter id="filter1038-8-2-30-6" x="-.37815" y="-.37815" width="1.7563" height="1.7563" color-interpolation-filters="sRGB">
<feGaussianBlur stdDeviation="8.8032286"/>
</filter>
<filter id="filter1018-5-9" x="-.31954" y="-.31954" width="1.6391" height="1.6391" color-interpolation-filters="sRGB">
<feGaussianBlur stdDeviation="7.4389068"/>
</filter>
<filter id="filter863-3-5-4" x="-.63275" y="-.63275" width="2.2655" height="2.2655" color-interpolation-filters="sRGB">
<feGaussianBlur stdDeviation="14.730283"/>
</filter>
</defs>
<g transform="translate(148.17 -5.2917)">

<g>
<rect x="-148.17" y="5.2917" width="508" height="285.75" stroke-width="2.6746"/>
<g stroke-width=".065041">
<circle cx="-88.547" cy="234.59" r="27.936" fill="#287c8d" filter="url(#filter863)"/>
<circle transform="matrix(.72565 0 0 .72565 -10.11 39.998)" cx="-43.845" cy="191.25" r="27.936" fill="#287c8d" filter="url(#filter863-3)"/>
<circle transform="matrix(1.0172 0 0 1.0172 -40.175 -24.996)" cx="-43.845" cy="191.25" r="27.936" fill="#40c5e0" filter="url(#filter863-3-5)"/>
<circle transform="matrix(1.0172 0 0 1.0172 24.86 -127.74)" cx="-43.845" cy="191.25" r="27.936" fill="#3dbed9" filter="url(#filter1166)"/>
<circle transform="matrix(1.0172 0 0 1.0172 26.046 -70.915)" cx="-43.845" cy="191.25" r="27.936" fill="#226a78" filter="url(#filter1038)"/>
</g>
</g>
<g fill="#287c8d" stroke-width=".065041">
<circle transform="matrix(1.0172 0 0 1.0172 -65.255 -155.1)" cx="-43.845" cy="191.25" r="27.936" filter="url(#filter863-3-5-6-1-0)"/>
<circle transform="matrix(.51345 0 0 .51345 -58.155 -42.31)" cx="-43.845" cy="191.25" r="27.936" filter="url(#filter1026)"/>
<circle transform="matrix(.79844 0 0 .79844 80.9 -82.89)" cx="-43.845" cy="191.25" r="27.936" filter="url(#filter1018)"/>
</g>
<g stroke-width=".065041">
<circle transform="matrix(2.3686 0 0 2.3686 400.33 -235.59)" cx="-43.845" cy="191.25" r="27.936" fill="#643a1f" filter="url(#filter1038-8)"/>
<circle transform="matrix(1.3434 0 0 1.3434 320.6 -78.396)" cx="-43.845" cy="191.25" r="27.936" fill="#b36837" filter="url(#filter1038-8-2)"/>
<circle transform="matrix(.89625 0 0 .89625 355.26 -53.336)" cx="-43.845" cy="191.25" r="27.936" fill="#a76034" filter="url(#filter1038-8-2-3)"/>
<circle transform="matrix(.89625 0 0 .89625 290.43 -68.472)" cx="-43.845" cy="191.25" r="27.936" fill="#643a1f" filter="url(#filter1038-8-2-3-9)"/>
<circle transform="matrix(.89625 0 0 .89625 322.77 -102.43)" cx="-43.845" cy="191.25" r="27.936" fill="#643a1f" filter="url(#filter1038-8-2-3-8)"/>
<circle transform="matrix(.89625 0 0 .89625 360.64 -111.45)" cx="-43.845" cy="191.25" r="27.936" fill="#8e522c" filter="url(#filter1038-8-2-3-3)"/>
</g>
<g fill="#643a1f" stroke-width=".065041">
<circle transform="matrix(.89625 0 0 .89625 326.73 -137.17)" cx="-43.845" cy="191.25" r="27.936" filter="url(#filter1038-8-2-3-2)"/>
<circle transform="matrix(.89625 0 0 .89625 281.22 -126.01)" cx="-43.845" cy="191.25" r="27.936" filter="url(#filter1038-8-2-3-4)"/>
<circle transform="matrix(.89625 0 0 .89625 245.16 -28.25)" cx="-43.845" cy="191.25" r="27.936" filter="url(#filter1038-8-2-3-45)"/>
<circle transform="matrix(1.2337 0 0 1.2337 265.96 -148.16)" cx="-43.845" cy="191.25" r="27.936" filter="url(#filter1038-8-2-3-6)"/>
<circle transform="matrix(1.2337 0 0 1.2337 223.99 -132.48)" cx="-43.845" cy="191.25" r="27.936" filter="url(#filter1038-8-2-3-6-6)"/>
</g>
<g stroke-width=".065041">
<circle transform="matrix(1.3434 0 0 1.3434 177.13 -105.61)" cx="-43.845" cy="191.25" r="27.936" fill="#b36837" filter="url(#filter1038-8-2-30-6)"/>
<circle transform="matrix(1.2337 0 0 1.2337 326.39 -105.81)" cx="-43.845" cy="191.25" r="27.936" fill="#854e29" filter="url(#filter1038-8-2-3-6-6-0)"/>
<circle transform="matrix(1.7565 0 0 1.7565 142.44 -206.07)" cx="-43.845" cy="191.25" r="27.936" fill="#35a3ba" filter="url(#filter1018-5)" opacity=".71293"/>
</g>
<g fill="#287c8d" stroke-width=".065041">
<circle transform="matrix(.68656 0 0 .68656 139.57 -73.116)" cx="-43.845" cy="191.25" r="27.936" filter="url(#filter1018-5-7)"/>
<circle transform="matrix(1.0228 0 0 1.0228 194.37 -111.19)" cx="-43.845" cy="191.25" r="27.936" filter="url(#filter1419)"/>
<circle transform="matrix(1.0228 0 0 1.0228 239.96 -140.06)" cx="-43.845" cy="191.25" r="27.936" filter="url(#filter1419-7)"/>
<circle transform="matrix(.84168 0 0 .84168 110.97 -123.04)" cx="-43.845" cy="191.25" r="27.936" filter="url(#filter1469)"/>
</g>
<g stroke-width=".065041">
<circle transform="matrix(.89625 0 0 .89625 246.63 39.683)" cx="-43.845" cy="191.25" r="27.936" fill="#643a1f" filter="url(#filter1038-8-2-3-45-7)"/>
<circle transform="matrix(1.3434 0 0 1.3434 226.44 -68.311)" cx="-43.845" cy="191.25" r="27.936" fill="#b36837" filter="url(#filter1038-8-2-30)"/>
<circle transform="matrix(1.2337 0 0 1.2337 199.56 -3.6531)" cx="-43.845" cy="191.25" r="27.936" fill="#854e29" filter="url(#filter1038-8-2-3-6-6-0-8)"/>
<circle transform="matrix(.72565 0 0 .72565 38.658 53.037)" cx="-43.845" cy="191.25" r="27.936" fill="#287c8d" filter="url(#filter863-3-3)"/>
<circle cx="-14.076" cy="232.19" r="27.936" fill="#287c8d" filter="url(#filter863-9)"/>
<circle transform="matrix(1.0172 0 0 1.0172 101.21 13.09)" cx="-43.845" cy="191.25" r="27.936" fill="#40c5e0" filter="url(#filter863-3-5-6)"/>
<circle transform="matrix(1.7565 0 0 1.7565 103.81 -211.07)" cx="-43.845" cy="191.25" r="27.936" fill="#35a3ba" filter="url(#filter1018-5-9)" opacity=".71293"/>
<circle transform="matrix(1.0172 0 0 1.0172 -51.249 -85.987)" cx="-43.845" cy="191.25" r="27.936" fill="#40c5e0" filter="url(#filter863-3-5-4)"/>
</g>
</g>
</svg>
